<?xml version="1.0" encoding="UTF-8"?>
<!DOCTYPE svg PUBLIC "-//W3C//DTD SVG 1.1//EN" "http://www.w3.org/Graphics/SVG/1.1/DTD/svg11.dtd">
<!-- Creator: CorelDRAW X7 -->
<svg xmlns="http://www.w3.org/2000/svg" xml:space="preserve" width="1.76762in" height="14.5445in" version="1.1" style="shape-rendering:geometricPrecision; text-rendering:geometricPrecision; image-rendering:optimizeQuality; fill-rule:evenodd; clip-rule:evenodd"
viewBox="0 0 144 1182"
 xmlns:xlink="http://www.w3.org/1999/xlink">
 <defs>
  <style type="text/css">
   <![CDATA[
    .str2 {stroke:#4B4B4D;stroke-width:2.39935}
    .str1 {stroke:#4B4B4D;stroke-width:2.39935;stroke-linecap:round;stroke-linejoin:round}
    .str0 {stroke:#4B4B4D;stroke-width:2.39935;stroke-linecap:round;stroke-linejoin:round}
    .str4 {stroke:#4B4B4D;stroke-width:2.39935;stroke-linecap:round;stroke-linejoin:round}
    .str3 {stroke:#4B4B4D;stroke-width:2.39935;stroke-linecap:round;stroke-linejoin:round}
    .fil0 {fill:none}
    .fil2 {fill:#4B4B4D}
    .fil1 {fill:#4B4B4D;fill-rule:nonzero}
   ]]>
  </style>
 </defs>
 <g id="Layer_x0020_1">
  <metadata id="CorelCorpID_0Corel-Layer"/>
  <g id="_1762579921712">
   <polyline class="fil0 str0" points="138,321 138,214 49,228 49,334 "/>
   <path class="fil0 str0" d="M49 331c2,8 -5,18 -17,22 -13,3 -24,-1 -27,-9 -2,-9 5,-19 17,-23 12,-3 24,1 27,10z"/>
   <path class="fil0 str0" d="M137 317c3,8 -5,18 -17,22 -12,4 -24,-1 -27,-9 -2,-9 6,-19 18,-23 12,-3 24,1 26,10z"/>
   <polygon class="fil0 str0" points="138,215 49,228 49,257 138,243 "/>
  </g>
  <g id="_1762579924080">
   <polygon class="fil0 str1" points="108,1181 36,1181 36,1082 108,1082 "/>
   <path class="fil0 str1" d="M42 1082l-27 0c-7,0 -13,5 -13,12l0 74c0,7 6,13 13,13l27 0 0 -99z"/>
   <polygon class="fil0 str1" points="8,1104 8,1096 37,1096 37,1104 "/>
   <polygon class="fil0 str1" points="8,1112 8,1104 37,1104 37,1112 "/>
   <polygon class="fil0 str1" points="8,1120 8,1112 37,1112 37,1120 "/>
   <polygon class="fil0 str1" points="8,1127 8,1120 37,1120 37,1127 "/>
   <polygon class="fil0 str1" points="8,1135 8,1127 37,1127 37,1135 "/>
   <polygon class="fil0 str1" points="8,1143 8,1135 37,1135 37,1143 "/>
   <polygon class="fil0 str1" points="8,1151 8,1143 37,1143 37,1151 "/>
   <polygon class="fil0 str1" points="8,1158 8,1151 37,1151 37,1158 "/>
   <polygon class="fil0 str1" points="8,1166 8,1158 37,1158 37,1166 "/>
   <polygon class="fil0 str2" points="20,1106 20,1102 37,1102 37,1106 "/>
   <polygon class="fil0 str2" points="20,1114 20,1110 37,1110 37,1114 "/>
   <polygon class="fil0 str2" points="20,1121 20,1117 37,1117 37,1121 "/>
   <polygon class="fil0 str2" points="20,1129 20,1125 37,1125 37,1129 "/>
   <polygon class="fil0 str2" points="20,1137 20,1133 37,1133 37,1137 "/>
   <polygon class="fil0 str2" points="20,1145 20,1141 37,1141 37,1145 "/>
   <polygon class="fil0 str2" points="20,1153 20,1148 37,1148 37,1153 "/>
   <polygon class="fil0 str2" points="20,1160 20,1156 37,1156 37,1160 "/>
   <path class="fil0 str1" d="M101 1082l28 0c7,0 12,5 12,12l0 74c0,7 -5,13 -12,13l-28 0 0 -99z"/>
   <path class="fil0 str2" d="M115 1104c0,1 -2,2 -3,2 -1,0 -3,-1 -3,-2 0,-2 2,-3 3,-3 1,0 3,1 3,3z"/>
   <path class="fil0 str1" d="M115 1104c0,1 -2,2 -3,2 -1,0 -3,-1 -3,-2 0,-2 2,-3 3,-3 1,0 3,1 3,3z"/>
   <path class="fil0 str2" d="M124 1104c0,1 -1,2 -3,2 -1,0 -2,-1 -2,-2 0,-2 1,-3 2,-3 2,0 3,1 3,3z"/>
   <path class="fil0 str1" d="M124 1104c0,1 -1,2 -3,2 -1,0 -2,-1 -2,-2 0,-2 1,-3 2,-3 2,0 3,1 3,3z"/>
   <path class="fil0 str2" d="M133 1104c0,1 -1,2 -2,2 -2,0 -3,-1 -3,-2 0,-2 1,-3 3,-3 1,0 2,1 2,3z"/>
   <path class="fil0 str1" d="M133 1104c0,1 -1,2 -2,2 -2,0 -3,-1 -3,-2 0,-2 1,-3 3,-3 1,0 2,1 2,3z"/>
   <path class="fil0 str2" d="M118 1112c0,1 -1,2 -2,2 -2,0 -3,-1 -3,-2 0,-2 1,-3 3,-3 1,0 2,1 2,3z"/>
   <path class="fil0 str1" d="M118 1112c0,1 -1,2 -2,2 -2,0 -3,-1 -3,-2 0,-2 1,-3 3,-3 1,0 2,1 2,3z"/>
   <path class="fil0 str2" d="M128 1112c0,1 -1,2 -3,2 -1,0 -2,-1 -2,-2 0,-2 1,-3 2,-3 2,0 3,1 3,3z"/>
   <path class="fil0 str1" d="M128 1112c0,1 -1,2 -3,2 -1,0 -2,-1 -2,-2 0,-2 1,-3 2,-3 2,0 3,1 3,3z"/>
   <path class="fil0 str2" d="M115 1119c0,2 -2,3 -3,3 -1,0 -3,-1 -3,-3 0,-1 2,-2 3,-2 1,0 3,1 3,2z"/>
   <path class="fil0 str1" d="M115 1119c0,2 -2,3 -3,3 -1,0 -3,-1 -3,-3 0,-1 2,-2 3,-2 1,0 3,1 3,2z"/>
   <path class="fil0 str2" d="M124 1119c0,2 -1,3 -3,3 -1,0 -2,-1 -2,-3 0,-1 1,-2 2,-2 2,0 3,1 3,2z"/>
   <path class="fil0 str1" d="M124 1119c0,2 -1,3 -3,3 -1,0 -2,-1 -2,-3 0,-1 1,-2 2,-2 2,0 3,1 3,2z"/>
   <path class="fil0 str2" d="M133 1119c0,2 -1,3 -2,3 -2,0 -3,-1 -3,-3 0,-1 1,-2 3,-2 1,0 2,1 2,2z"/>
   <path class="fil0 str1" d="M133 1119c0,2 -1,3 -2,3 -2,0 -3,-1 -3,-3 0,-1 1,-2 3,-2 1,0 2,1 2,2z"/>
   <path class="fil0 str2" d="M118 1127c0,2 -1,3 -2,3 -2,0 -3,-1 -3,-3 0,-1 1,-2 3,-2 1,0 2,1 2,2z"/>
   <path class="fil0 str1" d="M118 1127c0,2 -1,3 -2,3 -2,0 -3,-1 -3,-3 0,-1 1,-2 3,-2 1,0 2,1 2,2z"/>
   <path class="fil0 str2" d="M128 1127c0,2 -1,3 -3,3 -1,0 -2,-1 -2,-3 0,-1 1,-2 2,-2 2,0 3,1 3,2z"/>
   <path class="fil0 str1" d="M128 1127c0,2 -1,3 -3,3 -1,0 -2,-1 -2,-3 0,-1 1,-2 2,-2 2,0 3,1 3,2z"/>
   <path class="fil0 str2" d="M115 1135c0,2 -2,3 -3,3 -1,0 -3,-1 -3,-3 0,-1 2,-2 3,-2 1,0 3,1 3,2z"/>
   <path class="fil0 str1" d="M115 1135c0,2 -2,3 -3,3 -1,0 -3,-1 -3,-3 0,-1 2,-2 3,-2 1,0 3,1 3,2z"/>
   <path class="fil0 str2" d="M124 1135c0,2 -1,3 -3,3 -1,0 -2,-1 -2,-3 0,-1 1,-2 2,-2 2,0 3,1 3,2z"/>
   <path class="fil0 str1" d="M124 1135c0,2 -1,3 -3,3 -1,0 -2,-1 -2,-3 0,-1 1,-2 2,-2 2,0 3,1 3,2z"/>
   <path class="fil0 str2" d="M133 1135c0,2 -1,3 -2,3 -2,0 -3,-1 -3,-3 0,-1 1,-2 3,-2 1,0 2,1 2,2z"/>
   <path class="fil0 str1" d="M133 1135c0,2 -1,3 -2,3 -2,0 -3,-1 -3,-3 0,-1 1,-2 3,-2 1,0 2,1 2,2z"/>
   <path class="fil0 str2" d="M118 1143c0,1 -1,3 -2,3 -2,0 -3,-2 -3,-3 0,-1 1,-3 3,-3 1,0 2,2 2,3z"/>
   <path class="fil0 str1" d="M118 1143c0,1 -1,3 -2,3 -2,0 -3,-2 -3,-3 0,-1 1,-3 3,-3 1,0 2,2 2,3z"/>
   <path class="fil0 str2" d="M128 1143c0,1 -1,3 -3,3 -1,0 -2,-2 -2,-3 0,-1 1,-3 2,-3 2,0 3,2 3,3z"/>
   <path class="fil0 str1" d="M128 1143c0,1 -1,3 -3,3 -1,0 -2,-2 -2,-3 0,-1 1,-3 2,-3 2,0 3,2 3,3z"/>
   <path class="fil0 str2" d="M115 1151c0,1 -2,2 -3,2 -1,0 -3,-1 -3,-2 0,-2 2,-3 3,-3 1,0 3,1 3,3z"/>
   <path class="fil0 str1" d="M115 1151c0,1 -2,2 -3,2 -1,0 -3,-1 -3,-2 0,-2 2,-3 3,-3 1,0 3,1 3,3z"/>
   <path class="fil0 str2" d="M124 1151c0,1 -1,2 -3,2 -1,0 -2,-1 -2,-2 0,-2 1,-3 2,-3 2,0 3,1 3,3z"/>
   <path class="fil0 str1" d="M124 1151c0,1 -1,2 -3,2 -1,0 -2,-1 -2,-2 0,-2 1,-3 2,-3 2,0 3,1 3,3z"/>
   <path class="fil0 str2" d="M133 1151c0,1 -1,2 -2,2 -2,0 -3,-1 -3,-2 0,-2 1,-3 3,-3 1,0 2,1 2,3z"/>
   <path class="fil0 str1" d="M133 1151c0,1 -1,2 -2,2 -2,0 -3,-1 -3,-2 0,-2 1,-3 3,-3 1,0 2,1 2,3z"/>
   <path class="fil0 str2" d="M118 1159c0,1 -1,2 -2,2 -2,0 -3,-1 -3,-2 0,-2 1,-3 3,-3 1,0 2,1 2,3z"/>
   <path class="fil0 str1" d="M118 1159c0,1 -1,2 -2,2 -2,0 -3,-1 -3,-2 0,-2 1,-3 3,-3 1,0 2,1 2,3z"/>
   <path class="fil0 str2" d="M128 1159c0,1 -1,2 -3,2 -1,0 -2,-1 -2,-2 0,-2 1,-3 2,-3 2,0 3,1 3,3z"/>
   <path class="fil0 str1" d="M128 1159c0,1 -1,2 -3,2 -1,0 -2,-1 -2,-2 0,-2 1,-3 2,-3 2,0 3,1 3,3z"/>
   <line class="fil0 str1" x1="46" y1="1082" x2="46" y2= "1181" />
   <line class="fil0 str1" x1="51" y1="1082" x2="51" y2= "1181" />
   <line class="fil0 str1" x1="55" y1="1082" x2="55" y2= "1181" />
   <line class="fil0 str1" x1="60" y1="1082" x2="60" y2= "1181" />
   <line class="fil0 str1" x1="65" y1="1082" x2="65" y2= "1181" />
   <line class="fil0 str1" x1="69" y1="1082" x2="69" y2= "1181" />
   <line class="fil0 str1" x1="74" y1="1082" x2="74" y2= "1181" />
   <line class="fil0 str1" x1="79" y1="1082" x2="79" y2= "1181" />
   <line class="fil0 str1" x1="83" y1="1082" x2="83" y2= "1181" />
   <line class="fil0 str1" x1="88" y1="1082" x2="88" y2= "1181" />
   <line class="fil0 str1" x1="93" y1="1082" x2="93" y2= "1181" />
   <line class="fil0 str1" x1="97" y1="1082" x2="97" y2= "1181" />
  </g>
  <g id="_1762579877200">
   <path class="fil0 str2" d="M21 974l80 0 -17 -11 -63 0c-2,0 -2,0 -2,-1 0,0 0,-1 0,-2l51 -88c1,-2 2,-2 2,-2 0,0 1,0 2,2l50 88c1,1 1,2 1,2 0,1 -1,1 -2,1l-27 0 17 11 10 0c5,0 9,-2 12,-6 2,-4 2,-9 -1,-13l-51 -89c-2,-2 -4,-4 -6,-5 -1,-1 -3,-2 -5,-2 -2,0 -4,1 -5,2 -3,1 -5,3 -6,5l-51 89c-3,4 -3,9 -1,13 2,4 7,6 12,6z"/>
   <polygon class="fil0 str2" points="84,963 101,974 126,990 129,985 113,974 96,963 57,938 54,943 "/>
   <path class="fil0 str2" d="M72 848l0 0zm0 11c2,0 4,1 5,2l0 -8c0,-3 -2,-5 -5,-5 -3,0 -5,2 -5,5l0 8c1,-1 3,-2 5,-2z"/>
  </g>
  <g id="_1762579876688">
   <path class="fil0 str3" d="M108 44l0 17c0,20 -16,36 -36,36l0 0c-20,0 -36,-16 -36,-36l0 -17 72 0z"/>
   <path class="fil0 str3" d="M100 60c0,15 -13,27 -28,27l0 0c-16,0 -28,-12 -28,-27l0 -31c0,-15 12,-28 28,-28l0 0c15,0 28,13 28,28l0 31z"/>
   <line class="fil0 str3" x1="48" y1="15" x2="65" y2= "15" />
   <line class="fil0 str3" x1="44" y1="30" x2="65" y2= "30" />
   <line class="fil0 str3" x1="44" y1="44" x2="65" y2= "44" />
   <line class="fil0 str3" x1="44" y1="59" x2="65" y2= "59" />
   <line class="fil0 str3" x1="48" y1="73" x2="65" y2= "73" />
   <line class="fil0 str3" x1="96" y1="15" x2="78" y2= "15" />
   <line class="fil0 str3" x1="100" y1="30" x2="78" y2= "30" />
   <line class="fil0 str3" x1="100" y1="44" x2="78" y2= "44" />
   <line class="fil0 str3" x1="100" y1="59" x2="78" y2= "59" />
   <line class="fil0 str3" x1="96" y1="73" x2="78" y2= "73" />
   <g>
    <path class="fil1" d="M67 130l11 0 0 2 -11 0 -1 -1 1 -1zm0 2c-1,0 -1,-1 -1,-1 0,-1 0,-1 1,-1l0 2zm1 -36l0 35 -2 0 0 -35 1 -1 1 1zm-2 0c0,0 0,-1 1,-1 0,0 1,1 1,1l-2 0zm12 1l-11 0 0 -2 11 0 1 1 -1 1zm0 -2c1,0 1,1 1,1 0,1 0,1 -1,1l0 -2zm-1 36l0 -35 2 0 0 35 -1 1 -1 -1zm2 0c0,0 0,1 -1,1 -1,0 -1,-1 -1,-1l2 0z"/>
   </g>
   <polygon class="fil0 str3" points="52,142 52,131 93,131 93,142 "/>
  </g>
  <g>
   <path class="fil0 str2" d="M21 505c2,11 8,21 16,29 2,-3 4,-7 4,-11 0,-10 -9,-18 -19,-18 0,0 0,0 -1,0z"/>
   <path class="fil0 str2" d="M30 540c-9,-9 -15,-20 -18,-32 -5,3 -8,9 -8,15 0,10 8,18 18,18 3,0 5,0 8,-1z"/>
   <path class="fil0 str2" d="M11 495c0,-12 4,-24 11,-34 -1,0 -2,0 -3,0 -10,0 -18,8 -18,18 0,7 4,13 10,16z"/>
   <path class="fil0 str2" d="M31 465c-7,9 -10,20 -10,31 0,1 0,1 0,1 9,0 16,-8 16,-18 0,-5 -2,-10 -6,-14z"/>
   <path class="fil0 str2" d="M32 450c9,-7 20,-13 32,-14 -3,-5 -9,-7 -14,-7 -10,0 -19,8 -19,18 0,1 1,2 1,3z"/>
   <path class="fil0 str2" d="M68 445c-12,1 -23,6 -32,14 4,4 8,6 14,6 10,0 18,-8 18,-18 0,-1 0,-1 0,-2z"/>
   <path class="fil0 str2" d="M80 436c12,1 23,7 32,14 0,-1 0,-2 0,-3 0,-10 -8,-18 -18,-18 -6,0 -11,2 -14,7z"/>
   <path class="fil0 str2" d="M107 459c-8,-8 -19,-13 -31,-14 0,1 0,1 0,2 0,10 8,18 18,18 5,0 10,-2 13,-6z"/>
   <path class="fil0 str2" d="M122 461c7,10 11,22 11,34 5,-3 9,-9 9,-16 0,-10 -8,-18 -18,-18 -1,0 -1,0 -2,0z"/>
   <path class="fil0 str2" d="M123 496c0,-11 -4,-22 -10,-31 -4,4 -7,9 -7,14 0,10 8,18 17,18 0,0 0,0 0,-1z"/>
   <path class="fil0 str2" d="M121 505c-10,0 -18,8 -18,18 0,4 1,8 3,11 9,-8 14,-18 16,-29 0,0 0,0 -1,0z"/>
   <path class="fil0 str2" d="M131 508c-2,12 -8,23 -17,32 2,1 5,1 7,1 10,0 18,-8 18,-18 0,-6 -3,-12 -8,-15z"/>
   <path class="fil0 str2" d="M114 540c9,-9 15,-20 17,-32 1,-4 2,-8 2,-12 0,0 0,0 0,-1 0,-12 -4,-24 -11,-34 -3,-4 -6,-7 -10,-11 -9,-7 -20,-13 -32,-14 -3,-1 -6,-1 -8,-1 -3,0 -5,0 -8,1 -12,1 -23,7 -32,14 -4,4 -7,7 -10,11 -7,10 -11,22 -11,34 0,1 0,1 0,1 0,4 0,8 1,12 3,12 9,23 18,32 10,10 25,17 42,17 16,0 31,-7 42,-17zm8 -35c-2,11 -7,21 -16,29 -9,8 -21,13 -34,13 -14,0 -26,-5 -35,-13 -8,-8 -14,-18 -16,-29 0,-2 0,-5 0,-8 0,0 0,0 0,-1 0,-11 3,-22 10,-31 2,-2 3,-4 5,-6 9,-8 20,-13 32,-14 1,0 2,0 4,0 1,0 3,0 4,0 12,1 23,6 31,14 2,2 4,4 6,6 6,9 10,20 10,31 0,1 0,1 0,1 0,3 0,6 -1,8z"/>
  </g>
  <g>
   <polygon class="fil0 str4" points="142,665 1,665 1,748 142,748 "/>
   <polygon class="fil0 str4" points="26,749 13,749 13,700 26,700 "/>
   <polygon class="fil0 str4" points="39,749 26,749 26,700 39,700 "/>
   <polygon class="fil0 str4" points="52,749 39,749 39,700 52,700 "/>
   <polygon class="fil0 str4" points="65,749 52,749 52,700 65,700 "/>
   <polygon class="fil0 str4" points="78,749 65,749 65,700 78,700 "/>
   <polygon class="fil0 str4" points="91,749 78,749 78,700 91,700 "/>
   <polygon class="fil0 str4" points="105,749 91,749 91,700 105,700 "/>
   <polygon class="fil0 str4" points="118,749 105,749 105,700 118,700 "/>
   <polygon class="fil0 str4" points="131,749 118,749 118,700 131,700 "/>
   <polygon class="fil2 str2" points="30,728 23,728 23,700 30,700 "/>
   <polygon class="fil2 str2" points="42,728 36,728 36,700 42,700 "/>
   <polygon class="fil2 str2" points="55,728 48,728 48,700 55,700 "/>
   <polygon class="fil2 str2" points="69,728 62,728 62,700 69,700 "/>
   <polygon class="fil2 str2" points="82,728 75,728 75,700 82,700 "/>
   <polygon class="fil2 str2" points="95,728 88,728 88,700 95,700 "/>
   <polygon class="fil2 str2" points="108,728 101,728 101,700 108,700 "/>
   <polygon class="fil2 str2" points="121,728 114,728 114,700 121,700 "/>
  </g>
 </g>
</svg>
