<?xml version="1.0" encoding="UTF-8"?>
<!DOCTYPE svg PUBLIC "-//W3C//DTD SVG 1.1//EN" "http://www.w3.org/Graphics/SVG/1.1/DTD/svg11.dtd">
<!-- Creator: CorelDRAW X7 -->
<svg xmlns="http://www.w3.org/2000/svg" xml:space="preserve" width="1.77686in" height="14.688in" version="1.1" style="shape-rendering:geometricPrecision; text-rendering:geometricPrecision; image-rendering:optimizeQuality; fill-rule:evenodd; clip-rule:evenodd"
viewBox="0 0 169 1394"
 xmlns:xlink="http://www.w3.org/1999/xlink">
 <defs>
  <style type="text/css">
   <![CDATA[
    .str3 {stroke:#4B4B4D;stroke-width:2.80336}
    .str1 {stroke:#4B4B4D;stroke-width:2.80336}
    .str7 {stroke:#4B4B4D;stroke-width:2.80336}
    .str4 {stroke:#4B4B4D;stroke-width:2.80336;stroke-linecap:round;stroke-linejoin:round}
    .str5 {stroke:#4B4B4D;stroke-width:2.80336;stroke-linecap:round;stroke-linejoin:round}
    .str0 {stroke:#4B4B4D;stroke-width:2.80336;stroke-linecap:round;stroke-linejoin:round}
    .str2 {stroke:#4B4B4D;stroke-width:2.80336;stroke-linecap:round;stroke-linejoin:round}
    .str6 {stroke:#4B4B4D;stroke-width:2.80336;stroke-linecap:round;stroke-linejoin:round}
    .str8 {stroke:#4B4B4D;stroke-width:2.80336;stroke-linecap:round;stroke-linejoin:round}
    .fil0 {fill:none}
   ]]>
  </style>
 </defs>
 <g id="Layer_x0020_1">
  <metadata id="CorelCorpID_0Corel-Layer"/>
  <g id="_1762579893776">
   <path class="fil0 str0" d="M12 105c-3,-8 -5,-17 -5,-26 0,-43 35,-78 77,-78 43,0 78,35 78,78 0,9 -2,17 -4,25"/>
   <path class="fil0 str1" d="M152 93l0 40c9,-2 15,-10 15,-20 0,-9 -6,-17 -15,-20z"/>
   <path class="fil0 str0" d="M154 134c0,4 -4,7 -8,7l0 0c-4,0 -7,-3 -7,-7l0 -41c0,-5 3,-8 7,-8l0 0c4,0 8,3 8,8l0 41z"/>
   <path class="fil0 str1" d="M16 93l0 40c-8,-2 -15,-10 -15,-20 0,-9 7,-17 15,-20z"/>
   <path class="fil0 str0" d="M15 134c0,4 3,7 7,7l0 0c5,0 8,-3 8,-7l0 -41c0,-5 -3,-8 -8,-8l0 0c-4,0 -7,3 -7,8l0 41z"/>
  </g>
  <path class="fil0 str2" d="M138 1297l0 42c0,30 -24,54 -54,54l0 0c-29,0 -53,-24 -53,-54l0 -42"/>
  <path class="fil0 str2" d="M144 1305c0,4 -3,7 -6,7 -4,0 -7,-3 -7,-7l0 -38c0,-3 3,-6 7,-6l0 0c3,0 6,3 6,6l0 38z"/>
  <path class="fil0 str3" d="M122 1230c0,0 -1,0 -1,0l0 54c0,0 1,0 1,0 15,0 27,-12 27,-27 0,-15 -12,-27 -27,-27z"/>
  <path class="fil0 str2" d="M122 1230c0,0 -1,0 -1,0l0 54c0,0 1,0 1,0 15,0 27,-12 27,-27 0,-15 -12,-27 -27,-27z"/>
  <polygon class="fil0 str2" points="124,1287 111,1287 111,1228 124,1228 "/>
  <path class="fil0 str2" d="M25 1305c0,4 2,7 6,7l0 0c3,0 6,-3 6,-7l0 -38c0,-3 -3,-6 -6,-6l0 0c-4,0 -6,3 -6,6l0 38z"/>
  <path class="fil0 str3" d="M46 1230c1,0 1,0 2,0l0 54c-1,0 -1,0 -2,0 -15,0 -27,-12 -27,-27 0,-15 12,-27 27,-27z"/>
  <path class="fil0 str2" d="M46 1230c1,0 1,0 2,0l0 54c-1,0 -1,0 -2,0 -15,0 -27,-12 -27,-27 0,-15 12,-27 27,-27z"/>
  <polygon class="fil0 str2" points="45,1287 58,1287 58,1228 45,1228 "/>
  <g id="_1762579898000">
   <path class="fil0 str3" d="M167 815c0,45 -37,82 -83,82 -45,0 -82,-37 -82,-82 0,-46 37,-82 82,-82 46,0 83,36 83,82z"/>
   <path class="fil0 str4" d="M167 815c0,45 -37,82 -83,82 -45,0 -82,-37 -82,-82 0,-46 37,-82 82,-82 46,0 83,36 83,82z"/>
   <path class="fil0 str4" d="M131 809c5,3 5,8 0,11l-25 14c-5,3 -14,8 -19,11l-24 14c-5,4 -10,1 -10,-5l0 -28c0,-6 0,-16 0,-22l0 -28c0,-7 5,-9 10,-6l24 14c5,3 14,8 19,11l25 14z"/>
   <path class="fil0 str4" d="M131 809c5,3 5,8 0,11l-25 14c-5,3 -14,8 -19,11l-24 14c-5,4 -10,1 -10,-5l0 -28c0,-6 0,-16 0,-22l0 -28c0,-7 5,-9 10,-6l24 14c5,3 14,8 19,11l25 14z"/>
  </g>
  <g id="_1762579900496">
   <path class="fil0 str5" d="M125 588c-10,0 -18,-8 -18,-18 0,-9 8,-17 18,-17 9,0 17,8 17,17 0,10 -8,18 -17,18zm-76 0c-9,0 -17,-8 -17,-18 0,-9 8,-17 17,-17 10,0 18,8 18,17 0,10 -8,18 -18,18zm102 -74l-133 0c-9,0 -17,7 -17,17l0 76c0,9 8,17 17,17l133 0c9,0 16,-8 16,-17l0 -76c0,-10 -7,-17 -16,-17z"/>
   <path class="fil0 str5" d="M129 603l-89 0c-6,0 -11,5 -11,11l0 10 111 0 0 -10c0,-6 -5,-11 -11,-11z"/>
   <polygon class="fil0 str3" points="47,527 122,527 "/>
   <line class="fil0 str5" x1="47" y1="527" x2="122" y2= "527" />
   <polygon class="fil0 str3" points="47,532 122,532 "/>
   <line class="fil0 str5" x1="47" y1="532" x2="122" y2= "532" />
   <polygon class="fil0 str3" points="47,538 122,538 "/>
   <line class="fil0 str5" x1="47" y1="538" x2="122" y2= "538" />
  </g>
  <g id="_1762579902704">
   <path class="fil0 str6" d="M139 389c0,7 -6,13 -13,13l-83 0c-7,0 -13,-6 -13,-13l0 -138c0,-7 6,-13 13,-13l83 0c7,0 13,6 13,13l0 138z"/>
   <path class="fil0 str6" d="M38 260c0,-8 6,-14 13,-14"/>
   <path class="fil0 str6" d="M131 260c0,-8 -6,-14 -13,-14"/>
   <path class="fil0 str6" d="M131 380c0,7 -6,13 -13,13"/>
   <path class="fil0 str6" d="M38 380c0,7 6,13 13,13"/>
   <path class="fil0 str6" d="M120 351c0,19 -16,35 -36,35 -19,0 -35,-16 -35,-35 0,-20 16,-36 35,-36 20,0 36,16 36,36z"/>
   <path class="fil0 str7" d="M98 351c0,7 -6,13 -14,13 -7,0 -13,-6 -13,-13 0,-8 6,-14 13,-14 8,0 14,6 14,14z"/>
   <path class="fil0 str6" d="M111 281c0,15 -12,27 -27,27 -15,0 -27,-12 -27,-27 0,-15 12,-27 27,-27 15,0 27,12 27,27z"/>
   <path class="fil0 str7" d="M95 281c0,6 -5,11 -11,11 -6,0 -11,-5 -11,-11 0,-6 5,-11 11,-11 6,0 11,5 11,11z"/>
  </g>
  <g id="_1762579904464">
   <path class="fil0 str8" d="M15 1045l0 -30c0,-7 6,-13 13,-13l112 0c7,0 13,6 13,13l0 30"/>
   <path class="fil0 str8" d="M167 1105c0,7 -6,13 -13,13l-139 0c-8,0 -13,-6 -13,-13l0 -58c0,-7 5,-13 13,-13l139 0c7,0 13,6 13,13l0 58z"/>
   <path class="fil0 str3" d="M62 1076c0,15 -12,27 -26,27 -15,0 -26,-12 -26,-27 0,-14 11,-26 26,-26 14,0 26,12 26,26z"/>
   <path class="fil0 str8" d="M62 1076c0,15 -12,27 -26,27 -15,0 -26,-12 -26,-27 0,-14 11,-26 26,-26 14,0 26,12 26,26z"/>
   <line class="fil0 str8" x1="10" y1="1074" x2="37" y2= "1050" />
   <line class="fil0 str8" x1="11" y1="1085" x2="48" y2= "1053" />
   <line class="fil0 str8" x1="17" y1="1094" x2="56" y2= "1059" />
   <line class="fil0 str8" x1="24" y1="1100" x2="61" y2= "1067" />
   <line class="fil0 str8" x1="34" y1="1102" x2="62" y2= "1079" />
   <line class="fil0 str8" x1="62" y1="1074" x2="35" y2= "1050" />
   <line class="fil0 str8" x1="61" y1="1085" x2="24" y2= "1053" />
   <line class="fil0 str8" x1="55" y1="1094" x2="17" y2= "1059" />
   <line class="fil0 str8" x1="48" y1="1100" x2="12" y2= "1067" />
   <line class="fil0 str8" x1="38" y1="1102" x2="10" y2= "1078" />
   <path class="fil0 str3" d="M159 1076c0,15 -12,27 -27,27 -14,0 -26,-12 -26,-27 0,-14 12,-26 26,-26 15,0 27,12 27,26z"/>
   <path class="fil0 str8" d="M159 1076c0,15 -12,27 -27,27 -14,0 -26,-12 -26,-27 0,-14 12,-26 26,-26 15,0 27,12 27,26z"/>
   <line class="fil0 str8" x1="106" y1="1074" x2="134" y2= "1050" />
   <line class="fil0 str8" x1="108" y1="1085" x2="145" y2= "1053" />
   <line class="fil0 str8" x1="113" y1="1094" x2="152" y2= "1059" />
   <line class="fil0 str8" x1="120" y1="1100" x2="157" y2= "1067" />
   <line class="fil0 str8" x1="131" y1="1102" x2="159" y2= "1079" />
   <line class="fil0 str8" x1="159" y1="1074" x2="131" y2= "1050" />
   <line class="fil0 str8" x1="157" y1="1085" x2="121" y2= "1053" />
   <line class="fil0 str8" x1="152" y1="1094" x2="113" y2= "1059" />
   <line class="fil0 str8" x1="145" y1="1100" x2="108" y2= "1067" />
   <line class="fil0 str8" x1="134" y1="1102" x2="106" y2= "1078" />
   <polygon class="fil0 str8" points="99,1085 69,1085 69,1067 99,1067 "/>
   <polygon class="fil0 str8" points="72,1034 62,1034 62,1027 72,1027 "/>
   <polygon class="fil0 str8" points="89,1034 79,1034 79,1027 89,1027 "/>
   <polygon class="fil0 str8" points="107,1034 96,1034 96,1027 107,1027 "/>
   <line class="fil0 str8" x1="57" y1="1044" x2="111" y2= "1044" />
  </g>
 </g>
</svg>
