<?xml version="1.0" encoding="UTF-8"?>
<!DOCTYPE svg PUBLIC "-//W3C//DTD SVG 1.1//EN" "http://www.w3.org/Graphics/SVG/1.1/DTD/svg11.dtd">
<!-- Creator: CorelDRAW X7 -->
<svg xmlns="http://www.w3.org/2000/svg" xml:space="preserve" width="9.33092in" height="1.674in" version="1.1" style="shape-rendering:geometricPrecision; text-rendering:geometricPrecision; image-rendering:optimizeQuality; fill-rule:evenodd; clip-rule:evenodd"
viewBox="0 0 14393 2582"
 xmlns:xlink="http://www.w3.org/1999/xlink">
 <defs>
  <style type="text/css">
   <![CDATA[
    .str0 {stroke:#868686;stroke-width:6.0729}
    .fil0 {fill:#4B4B4D}
    .fil2 {fill:#868686}
    .fil3 {fill:#868686}
    .fil1 {fill:white}
   ]]>
  </style>
 </defs>
 <g id="Layer_x0020_1">
  <metadata id="CorelCorpID_0Corel-Layer"/>
  <path class="fil0" d="M13102 2582c713,0 1291,-578 1291,-1291 0,-713 -578,-1291 -1291,-1291l-11811 0 0 0c-713,0 -1291,578 -1291,1291 0,713 578,1291 1291,1291l0 0 11811 0z"/>
  <circle class="fil1" cx="13102" cy="1291" r="905"/>
  <path class="fil2 str0" d="M13624 1524c4,0 6,-4 6,-8 0,-4 -2,-8 -6,-8l-1046 0c-3,0 -3,4 -3,8 0,4 0,8 3,8l1046 0zm-79 453l0 -37 -32 -51 21 0 20 35 21 -35 20 0 -32 51 0 37 -18 0zm-78 0l0 -73 -26 0 0 -15 69 0 0 15 -26 0 0 73 -17 0zm-55 0l0 -88 18 0 0 88 -18 0zm-32 -32l18 5c-3,10 -7,17 -14,22 -6,4 -14,7 -23,7 -12,0 -21,-4 -29,-12 -7,-8 -11,-19 -11,-33 0,-15 4,-26 11,-34 8,-8 18,-12 30,-12 11,0 20,3 26,9 4,4 7,10 9,17l-17 4c-1,-5 -3,-8 -7,-11 -3,-3 -7,-4 -12,-4 -6,0 -12,2 -16,7 -4,5 -6,12 -6,23 0,11 2,19 6,23 4,5 9,8 16,8 5,0 9,-2 12,-5 3,-3 6,-8 7,-14zm-178 32l0 -88 17 0 0 39 36 -39 24 0 -33 35 35 53 -23 0 -24 -41 -15 15 0 26 -17 0zm-89 0l0 -88 37 0c9,0 16,1 20,3 5,1 8,4 11,8 2,4 4,9 4,14 0,7 -2,12 -6,16 -4,5 -10,7 -18,9 4,2 7,4 10,7 2,3 6,7 10,14l11 17 -22 0 -12 -19c-5,-7 -8,-11 -10,-13 -1,-2 -3,-3 -5,-3 -2,-1 -5,-1 -9,-1l-4 0 0 36 -17 0zm17 -50l14 0c8,0 13,-1 15,-1 3,-1 4,-2 5,-4 2,-2 2,-4 2,-7 0,-3 -1,-5 -2,-7 -2,-2 -4,-3 -7,-3 -1,-1 -6,-1 -13,-1l-14 0 0 23zm-117 7c0,-9 2,-17 4,-23 2,-4 5,-8 9,-12 3,-3 7,-6 11,-8 5,-2 12,-3 19,-3 13,0 23,4 31,12 8,8 12,19 12,33 0,15 -4,26 -12,34 -8,8 -18,12 -31,12 -13,0 -23,-4 -31,-12 -8,-8 -12,-19 -12,-33zm19 -1c0,10 2,18 7,23 4,5 10,8 17,8 7,0 13,-3 18,-8 4,-5 6,-13 6,-23 0,-10 -2,-18 -6,-23 -5,-5 -10,-7 -18,-7 -7,0 -13,3 -18,8 -4,5 -6,12 -6,22zm-74 44l0 -37 -32 -51 21 0 21 35 20 -35 20 0 -32 51 0 37 -18 0zm-159 0l-20 -88 18 0 13 61 16 -61 21 0 16 62 13 -62 18 0 -21 88 -19 0 -18 -65 -17 65 -20 0zm-94 0l0 -88 66 0 0 15 -48 0 0 20 44 0 0 15 -44 0 0 23 49 0 0 15 -67 0zm-88 0l0 -88 17 0 36 59 0 -59 17 0 0 88 -18 0 -36 -57 0 57 -16 0zm1072 -356c17,0 29,-12 29,-29 0,-15 -12,-28 -29,-28 -16,0 -29,13 -29,28 0,17 13,29 29,29zm-432 20c0,44 33,76 78,76 45,0 79,-32 79,-76 0,-40 -27,-77 -79,-77 -51,0 -78,37 -78,77zm-106 68c-29,0 -58,-24 -58,-71 0,-46 28,-65 56,-65 30,0 39,19 43,32 1,2 3,3 5,2 2,-1 2,-3 2,-4 -1,-13 -2,-23 -2,-29 0,-3 -1,-4 -4,-5 -14,-3 -30,-5 -44,-5 -46,0 -86,26 -86,77 0,52 38,77 86,77 15,0 33,-4 41,-8 2,0 3,-1 4,-3 4,-6 8,-16 9,-30 0,-1 0,-2 -3,-3 -2,-1 -3,1 -3,2 -7,14 -18,33 -46,33zm-269 -135c10,0 12,2 12,25l0 42 0 41c0,22 -2,23 -12,25l-5 1c-2,0 -2,2 -2,3 0,2 1,4 2,4 0,0 19,-1 29,-1 11,0 30,1 30,1 2,0 3,-2 3,-4 0,-1 -1,-3 -2,-3l-5 -1c-10,-2 -13,-3 -13,-25l0 -34c0,-3 2,-5 4,-6 3,0 5,0 7,4 11,13 34,42 44,56 3,3 1,4 -2,5l-5 1c-2,0 -2,2 -2,3 0,3 1,4 2,4 0,0 18,-1 29,-1 11,0 29,1 29,1 1,0 3,-1 3,-4 0,-2 -1,-3 -3,-3 -13,-2 -16,-4 -22,-11 -14,-15 -42,-52 -53,-67 -2,-2 -3,-3 0,-5 6,-7 26,-28 35,-36 11,-10 19,-14 34,-16 1,0 2,-2 2,-4 0,-1 -1,-2 -3,-2 0,0 -15,1 -23,1 -10,0 -25,-1 -25,-1 -2,0 -2,1 -2,2 0,3 0,5 1,5l6 1c2,1 2,1 3,2 0,3 -5,9 -11,15 -9,10 -24,26 -33,34 -6,7 -9,8 -11,6 -2,-1 -4,-3 -4,-9l0 -24c0,-23 3,-25 13,-25l5 0c1,-1 2,-2 2,-5 0,-1 -1,-2 -3,-2 0,0 -19,1 -30,1 -10,0 -29,-1 -29,-1 -1,0 -2,1 -2,2 0,3 0,4 2,5l5 0zm-125 77c25,8 30,19 30,31 0,16 -12,27 -31,27 -24,0 -35,-21 -41,-36 0,-1 -2,-3 -5,-2 -2,1 -3,3 -3,4 0,9 2,21 5,29 2,3 2,4 5,6 8,3 21,7 39,7 36,0 56,-19 56,-45 0,-25 -18,-36 -44,-46 -19,-6 -33,-13 -33,-30 0,-12 9,-23 27,-23 21,0 28,14 32,26 0,2 1,2 4,2 2,0 3,-1 3,-3 0,-8 -1,-20 -3,-27 -1,-2 -2,-2 -5,-3 -7,-2 -17,-4 -29,-4 -35,0 -53,18 -53,40 0,26 21,38 46,47zm-174 -77c10,0 13,2 13,25l0 42 0 41c0,22 -3,23 -13,25l-5 1c-1,0 -2,2 -2,3 0,2 1,4 3,4 0,0 19,-1 30,-1 10,0 29,1 29,1 1,0 2,-2 2,-4 0,-1 0,-3 -2,-3l-4 -1c-11,-3 -13,-3 -13,-25l0 -41 0 -42c0,-23 2,-25 13,-25l4 0c2,-1 2,-2 2,-5 0,-1 -1,-2 -2,-2 0,0 -19,1 -29,1 -11,0 -30,-1 -30,-1 -2,0 -3,1 -3,2 0,3 1,4 2,5l5 0zm993 0c18,1 20,4 20,33l0 34 0 31c-28,-28 -66,-70 -89,-103 -1,-1 -2,-2 -5,-2 -12,1 -28,1 -38,0 -1,0 -2,1 -2,2 0,3 0,5 2,5 17,3 22,7 22,25l0 42 0 34c0,26 -2,30 -13,32l-5 1c-1,0 -1,2 -1,3 0,2 0,4 2,4 9,-1 16,-1 22,-1 6,0 15,0 23,1 2,0 1,-2 2,-4 1,-1 0,-3 -2,-3l-4 -1c-11,-3 -13,-6 -13,-32l0 -34 0 -41c28,29 71,78 103,116 1,2 2,2 5,1 3,-1 3,-2 3,-3 0,-12 0,-22 0,-32l0 -41 0 -34c0,-26 1,-33 12,-33l4 0c2,-1 2,-2 2,-5 0,-1 0,-2 -2,-2 -8,0 -16,1 -22,1 -6,0 -17,-1 -25,-1 -2,0 -3,1 -3,2 0,3 1,4 2,5zm48 199c4,0 6,-3 6,-7 0,-5 -2,-8 -6,-8l-1046 0c-3,0 -5,3 -5,8 0,4 2,7 5,7l1046 0zm65 -205c14,0 24,11 24,24 0,15 -10,26 -24,26 -13,0 -24,-11 -24,-26 0,-13 11,-24 24,-24zm-306 73c0,38 -21,67 -48,67 -26,0 -47,-29 -47,-67 0,-35 17,-67 47,-67 31,0 48,32 48,67zm323 -32c0,-1 0,-1 0,-2 -1,0 -2,0 -3,-1 -2,-3 -5,-6 -8,-12 -1,-1 -1,-1 -1,-2 3,0 6,-2 6,-6 0,-7 -7,-9 -13,-9 -4,0 -7,0 -11,1 -1,0 -1,1 0,2l1 0c3,0 3,1 3,6l0 14c0,5 0,6 -4,6l-1 0c0,1 0,2 0,2 3,0 5,0 7,0 3,0 4,0 7,0 1,0 1,-1 0,-2l-1 0c-2,0 -2,-1 -2,-6l0 -4c0,-1 0,-1 0,-1 2,0 2,0 3,1 2,1 3,4 4,6 3,5 5,7 10,7 1,0 2,0 3,0zm-18 -29c4,0 6,3 6,6 0,2 -1,4 -2,5 0,1 -2,1 -4,1 -2,0 -2,0 -2,-1l0 -10c0,-1 0,-1 2,-1zm101 -322c7,0 7,-3 1,-5 -65,-27 -129,-45 -190,-54 40,-90 41,-168 79,-229 3,-5 2,-7 -4,-7 -69,-6 -136,-1 -196,12 -12,-69 -20,-136 6,-214 3,-6 1,-10 -5,-6 -58,29 -125,79 -182,143 -44,-86 -106,-166 -124,-289 -1,-8 -5,-7 -5,0l0 563c0,49 -34,72 -67,72 -33,0 -67,-23 -67,-72l0 -563c0,-7 -5,-8 -5,0 -17,123 -80,203 -124,289 -56,-64 -124,-114 -183,-143 -6,-4 -7,0 -5,6 27,78 19,145 8,214 -61,-13 -128,-18 -197,-12 -7,0 -7,2 -4,7 39,61 39,139 78,229 -60,9 -123,27 -190,54 -5,2 -5,5 2,5 91,4 226,152 384,152 135,0 214,-93 233,-193 10,23 32,35 54,39 -34,6 -62,33 -62,68 0,58 55,75 73,120 2,4 3,6 5,6 2,0 3,-3 4,-6 17,-43 74,-62 74,-120 0,-35 -28,-62 -63,-68 23,-4 44,-16 55,-39 19,100 98,193 233,193 158,0 293,-148 384,-152zm-338 -276c-42,12 -80,28 -113,47 -4,-41 -16,-77 -32,-112 47,-53 100,-94 149,-121 -21,62 -15,125 -4,186zm-697 0c9,-61 15,-124 -5,-186 48,27 102,68 149,121 -16,35 -28,71 -32,112 -33,-19 -71,-35 -112,-47zm173 -59c32,-61 73,-117 92,-196l0 385c-15,-70 -49,-134 -92,-189zm350 0c-43,55 -78,119 -92,189l0 -385c19,79 60,135 92,196zm213 270c4,-21 5,-43 5,-66 0,-46 -6,-88 -13,-130 47,-10 103,-15 165,-13 -37,58 -37,121 -74,211 -29,-2 -56,-3 -83,-2zm-775 0c-28,-1 -56,0 -84,2 -38,-90 -38,-153 -73,-211 62,-2 116,3 164,13 -7,42 -13,84 -13,130 0,23 1,45 6,66zm603 -151c-75,50 -120,119 -120,200 0,12 2,29 7,41 -12,-19 -21,-53 -21,-84 0,-96 43,-186 102,-258 14,31 27,63 32,101zm-432 0c5,-38 17,-70 32,-101 58,72 101,162 101,258 0,31 -9,65 -20,84 4,-12 7,-29 7,-41 0,-81 -45,-150 -120,-200zm61 226c-61,-42 -131,-67 -208,-74 -3,-18 -5,-37 -5,-59 0,-42 9,-86 16,-132 45,12 83,28 115,47 0,3 0,5 0,8 0,88 36,158 82,210zm392 -218c37,-22 87,-40 115,-47 8,48 15,95 15,132 0,20 -2,44 -5,59 -45,5 -126,17 -207,74 70,-79 83,-162 82,-218zm-18 31c0,96 -55,168 -103,213 -6,-14 -9,-31 -9,-50 0,-57 34,-129 111,-181 0,6 1,12 1,18zm-437 -18c78,52 112,124 112,181 0,19 -4,36 -11,50 -47,-45 -101,-117 -101,-213 0,-6 0,-12 0,-18zm576 151c-25,92 -92,128 -145,128 -33,0 -67,-13 -92,-38 68,-54 149,-83 237,-90zm-571 128c-53,0 -120,-36 -145,-128 88,7 169,36 237,90 -25,25 -60,38 -92,38zm674 -126c-45,99 -130,151 -215,151 -44,0 -82,-14 -107,-39 24,17 51,23 75,23 83,0 146,-51 169,-139 26,-1 52,0 79,4 0,0 0,0 -1,0zm-923 0c26,-4 53,-5 79,-4 24,88 86,139 170,139 23,0 50,-6 73,-23 -24,25 -61,39 -106,39 -85,0 -170,-52 -216,-151zm715 163c91,0 182,-53 236,-160 44,7 88,18 132,35 -96,24 -200,141 -332,141 -58,0 -106,-20 -137,-48 28,20 63,32 101,32zm-742 -160c53,107 144,160 237,160 37,0 72,-12 101,-32 -33,28 -80,48 -139,48 -130,0 -235,-117 -331,-141 44,-17 88,-28 132,-35z"/>
  <circle class="fil1" cx="1291" cy="1291" r="905"/>
  <path class="fil3" d="M1473 1644c11,2 21,3 32,6 10,2 20,4 30,8 10,3 20,7 30,12 9,4 19,9 27,14 9,5 16,11 25,17 8,7 17,15 25,22 8,8 15,16 22,24 7,8 13,17 19,26 -6,3 -12,6 -19,9 -6,4 -12,6 -20,9 -8,3 -17,6 -25,8 -9,2 -17,3 -26,5 -10,1 -20,1 -29,2 -8,0 -13,-1 -19,-2 -5,-1 -11,-3 -16,-5 -5,-3 -10,-6 -15,-9 -4,-3 -9,-7 -12,-11 -4,-4 -8,-9 -11,-14 -2,-5 -5,-10 -7,-16 -2,-6 -4,-13 -6,-20 -2,-7 -3,-14 -4,-21 -1,-8 -2,-15 -2,-21 -1,-5 -1,-10 0,-15 0,-5 0,-11 0,-16 1,-5 1,-8 1,-12zm8 -997l3 1 58 168 -107 90 -14 -53 -17 -52 77 -154zm-129 1037l0 512 -121 0 0 -512 -9 -9 -16 -38 -14 -40 -11 -39 -9 -41 33 -10 34 -7 35 -3 34 0 35 3 34 7 33 10 -9 41 -11 40 -14 39 -16 38 -8 9zm-438 -810l23 139 -46 -24 -47 -22 -48 -19 -46 -140 164 66zm-296 288l50 23 49 25 47 28 -10 13 -8 14 -7 15 -4 16 -2 14 0 13 -12 -4 -12 -2 -20 -2 -20 2 -20 6 -13 -53 -10 -54 -8 -54zm128 206l170 235 -26 19 -24 22 -22 23 -21 25 -35 -52 -32 -54 -29 -56 -26 -57 -23 -59 -20 -59 18 -5 19 -1 18 3 17 6 16 10zm363 276l2 21 0 21 -2 22 -4 21 -7 21 -7 16 -10 13 -13 12 -15 8 -16 5 -17 2 -28 -1 -28 -5 -27 -9 -19 -8 -19 -10 19 -26 21 -24 24 -21 26 -18 28 -15 30 -12 30 -8 32 -5zm-22 -73l8 20 7 20 -34 6 -34 9 -32 14 -31 16 -29 20 -26 23 -24 26 -20 28 -16 -14 -14 -15 22 -30 26 -27 28 -24 30 -22 33 -17 34 -15 35 -11 37 -7zm-294 -315l45 34 44 36 42 38 39 41 36 44 34 45 32 47 -32 8 -31 9 -29 13 -29 14 -175 -241 -3 -16 0 -15 3 -16 5 -15 8 -14 11 -12zm358 192l-57 -45 -54 -48 -53 -50 -50 -52 -47 -55 -42 -53 -46 -49 -48 -47 -50 -45 -53 -41 -56 -39 59 17 57 14 56 18 54 21 54 24 51 27 50 30 49 34 46 36 44 38 2 54 4 53 8 53 10 53 12 52zm-13 -506l-9 49 -7 49 -5 49 -2 50 -45 -38 -47 -34 -48 -32 -46 -270 209 177zm531 -68l163 -66 -46 140 -48 19 -47 22 -46 24 24 -139zm296 288l-8 54 -11 54 -13 53 -19 -6 -20 -2 -21 2 -12 2 -12 4 0 -13 -2 -14 -4 -16 -6 -15 -9 -14 -10 -13 47 -28 49 -25 51 -23zm-129 206l16 -10 17 -6 19 -3 18 1 18 5 -20 59 -23 59 -26 57 -29 56 -32 54 -35 52 -20 -25 -23 -23 -24 -22 -26 -19 170 -235zm-734 -721l76 154 -17 52 -14 53 -107 -90 58 -168 4 -1zm394 924l36 7 36 11 34 15 32 17 31 22 28 24 25 27 22 30 -14 15 -16 14 -20 -28 -24 -26 -26 -23 -29 -20 -30 -16 -33 -14 -33 -9 -35 -6 7 -20 9 -20zm-322 -169l-9 -41 42 -8 42 -6 42 -1 42 1 42 6 42 8 -9 41 -38 -8 -39 -5 -40 -2 -39 2 -39 5 -39 8zm117 64l-33 1 -32 4 -32 7 -12 -44 36 -7 36 -5 37 -2 37 2 36 5 36 7 -12 44 -32 -7 -32 -4 -33 -1zm499 -210l10 12 8 14 5 15 3 16 0 15 -3 16 -175 241 -28 -14 -30 -13 -31 -9 -31 -8 31 -47 34 -45 36 -44 39 -41 42 -38 44 -36 46 -34zm-499 -618l29 52 25 54 23 56 19 56 16 58 13 58 9 59 7 59 2 60 0 59 -4 60 -8 59 -43 -9 -44 -5 -44 -2 -44 2 -44 5 -43 9 -7 -59 -4 -60 -1 -59 3 -60 6 -59 9 -59 13 -58 16 -58 19 -56 23 -56 26 -54 28 -52zm140 810l13 -52 10 -53 7 -53 5 -53 2 -54 43 -38 47 -36 48 -34 50 -30 52 -27 53 -24 55 -21 55 -18 57 -14 59 -17 -55 39 -53 41 -51 45 -48 47 -45 49 -43 53 -47 55 -50 52 -52 50 -55 48 -57 45zm13 -506l209 -177 -46 270 -48 32 -47 34 -45 38 -2 -50 -5 -49 -7 -49 -9 -49z"/>
 </g>
</svg>
